# xmcd
#
# Track frame offsets:
#	150
#	15906
#	28702
#	39890
#	50408
#	64078
#	75109
#	88330
#	99984
#	113232
#	125056
#	137974
#	148180
#	167272
#	185681
#	205034
#	217107
#
# Disc length: 3049
#
# Revision: 1
# Processed by: cddbd v1.5.1PL0 Copyright (c) Steve Scherf et al.
# Submitted via: VisiTrax 2.9.5.181 - For more info visit www.synapsa.com
# Normalized: r0:DSETVAR1
#
DISCID=e60be711
DTITLE=Various Artist - Country Classics CD 8
DYEAR=2003
DGENRE=
TTITLE0=Bill Anderson - Mama Sang A Song
TTITLE1=Nat Stuckley - Sweet Thang
TTITLE2=Conway Twitty - Hello Darlin
TTITLE3=George Jones - Walk Through This World With Me
TTITLE4=Claude King - Wolverton Mountain
TTITLE5=Hank Thompson - On Tap, In The Can, Or In The Bottle
TTITLE6=Dr. Hook - Sharing The Night Together
TTITLE7=George Jones - She Thinks I Still Care
TTITLE8=Lynn Anderson - Rose Garden
TTITLE9=Bobby Goldboro - Watching Scotty Grow
TTITLE10=Donna Fargo - Funny Face
TTITLE11=Dottie West - Tonight You Belong To Me
TTITLE12=Alabama - Mountain Music
TTITLE13=Charlie Daniels - Long Haired Country Boy
TTITLE14=Hank Williams, Jr - A Country Boy Can Survive
TTITLE15=Johnny Horton - When Its Springtime In Alaska
TTITLE16=Loretta Lynn and Conway Twitty - Youre The Reason Our Kids Are Ugly
EXTD=
EXTT0=
EXTT1=
EXTT2=
EXTT3=
EXTT4=
EXTT5=
EXTT6=
EXTT7=
EXTT8=
EXTT9=
EXTT10=
EXTT11=
EXTT12=
EXTT13=
EXTT14=
EXTT15=
EXTT16=
PLAYORDER=
